<svg xmlns="http://www.w3.org/2000/svg" width="32" height="26" viewBox="0 0 32 26">
  <defs>
    <style>
      .cls-1 {
        fill-rule: evenodd;
      }
    </style>
  </defs>
  <path id="icon-timeline-food.svg" class="cls-1" d="M904.771,170.291h21.4a0.464,0.464,0,0,0,.466-0.464,11.147,11.147,0,0,0-9.322-10.962,2.067,2.067,0,0,0,.482-1.314,2.095,2.095,0,0,0-4.189,0,2.058,2.058,0,0,0,.432,1.253,11.149,11.149,0,0,0-9.737,11.023,0.465,0.465,0,0,0,.465.464h0Zm10.935-13.9a1.159,1.159,0,1,1-1.164,1.158,1.162,1.162,0,0,1,1.164-1.158h0Zm-0.233,3.244a10.227,10.227,0,0,1,10.226,9.727H905.248a10.228,10.228,0,0,1,10.225-9.727h0Zm0,0-3.217,1.493a9.269,9.269,0,0,0-5.093,4.523,0.462,0.462,0,0,0,.205.623,0.485,0.485,0,0,0,.209.05,0.468,0.468,0,0,0,.417-0.255A8.346,8.346,0,0,1,912.578,162a0.464,0.464,0,1,0-.322-0.87h0Zm0,0,15.314,10.085H901.98v0.928h1.395V174h0.931v-1.852H926.64V174h0.93v-1.852h1.4v-0.928h-1.4Zm0,0M914.232,153.12a0.947,0.947,0,0,1-.475.577,0.463,0.463,0,0,0-.234.612,0.462,0.462,0,0,0,.613.234,1.871,1.871,0,0,0,.992-1.169,2.767,2.767,0,0,0-.638-2.316,1.5,1.5,0,0,1-.372-1.287,1.6,1.6,0,0,1,.926-0.814,0.46,0.46,0,0,0,.3-0.583,0.467,0.467,0,0,0-.586-0.3,2.523,2.523,0,0,0-1.519,1.4,2.343,2.343,0,0,0,.5,2.118,1.979,1.979,0,0,1,.5,1.526h0Zm0,0,2.961-.652a0.559,0.559,0,0,1-.27.336,0.463,0.463,0,0,0,.189.887,0.473,0.473,0,0,0,.188-0.039,1.492,1.492,0,0,0,.789-0.93,2.12,2.12,0,0,0-.479-1.784,1.028,1.028,0,0,1-.253-0.818,1.008,1.008,0,0,1,.589-0.507,0.464,0.464,0,0,0,.3-0.584,0.468,0.468,0,0,0-.587-0.3,1.915,1.915,0,0,0-1.18,1.094,1.8,1.8,0,0,0,.376,1.646,1.328,1.328,0,0,1,.342.995h0Zm0,0" transform="translate(-899.469 -148.031)"/>
</svg>
