<svg xmlns="http://www.w3.org/2000/svg" width="22" height="18" viewBox="0 0 22 18">
  <defs>
    <style>
      .cls-1 {
        fill: #fff;
        fill-rule: evenodd;
      }
    </style>
  </defs>
  <path id="icon-timer-fill-small.svg" class="cls-1" d="M331.863,143.5h-1.2V142a5.138,5.138,0,0,0-2.579-4.5,5.137,5.137,0,0,0,2.579-4.5v-1.5h1.2a0.751,0.751,0,0,0,0-1.5h-9.628a0.751,0.751,0,0,0,0,1.5h1.2V133a5.137,5.137,0,0,0,2.579,4.5,5.138,5.138,0,0,0-2.579,4.5v1.5h-1.2a0.751,0.751,0,0,0,0,1.5h9.628a0.751,0.751,0,0,0,0-1.5h0ZM322.235,131a0.249,0.249,0,0,1,0-.5h9.628a0.249,0.249,0,0,1,0,.5h-9.628Zm9.628,13.5h-9.628a0.25,0.25,0,0,1,0-.5h9.628a0.25,0.25,0,0,1,0,.5h0Zm-6.98-1.5a0.241,0.241,0,1,1-.241-0.251,0.244,0.244,0,0,1,.241.251h0Zm0.963,0a0.241,0.241,0,1,1-.24-0.251,0.244,0.244,0,0,1,.24.251h0Zm0.963,0a0.241,0.241,0,1,1-.24-0.251,0.245,0.245,0,0,1,.24.251h0Zm0.963,0a0.241,0.241,0,1,1-.241-0.251,0.245,0.245,0,0,1,.241.251h0Zm0.962,0a0.241,0.241,0,1,1-.24-0.251,0.245,0.245,0,0,1,.24.251h0Zm0.963,0a0.241,0.241,0,1,1-.241-0.251,0.244,0.244,0,0,1,.241.251h0Zm-4.332-.5a0.241,0.241,0,1,1-.241-0.25,0.246,0.246,0,0,1,.241.25h0Zm0.963,0a0.241,0.241,0,1,1-.241-0.25,0.246,0.246,0,0,1,.241.25h0Zm0.962-4.249a0.241,0.241,0,1,1-.241-0.249,0.244,0.244,0,0,1,.241.249h0Zm-1.444-2.749a0.241,0.241,0,1,1-.24-0.25,0.244,0.244,0,0,1,.24.25h0Zm0.963,0a0.241,0.241,0,1,1-.24-0.25,0.245,0.245,0,0,1,.24.25h0Zm0.963,0a0.241,0.241,0,1,1-.241-0.25,0.245,0.245,0,0,1,.241.25h0Zm0.962,0a0.241,0.241,0,1,1-.24-0.25,0.245,0.245,0,0,1,.24.25h0Zm-0.481-.5a0.241,0.241,0,1,1-.24-0.251,0.245,0.245,0,0,1,.24.251h0Zm0.481-.5a0.241,0.241,0,1,1-.24-0.248,0.244,0.244,0,0,1,.24.248h0Zm-2.406.5a0.241,0.241,0,1,1-.241-0.251,0.246,0.246,0,0,1,.241.251h0Zm0.962,0a0.241,0.241,0,1,1-.241-0.251,0.245,0.245,0,0,1,.241.251h0Zm-1.444-.5a0.241,0.241,0,1,1-.24-0.248,0.244,0.244,0,0,1,.24.248h0Zm0.482,1.5a0.241,0.241,0,1,1-.482,0,0.241,0.241,0,1,1,.482,0h0Zm0.481,0.5a0.241,0.241,0,1,1-.24-0.25,0.246,0.246,0,0,1,.24.25h0Zm0.963,0a0.241,0.241,0,1,1-.241-0.25,0.246,0.246,0,0,1,.241.25h0Zm-0.482-.5a0.241,0.241,0,1,1-.241-0.249,0.244,0.244,0,0,1,.241.249h0Zm0.963,0a0.241,0.241,0,1,1-.481,0,0.241,0.241,0,1,1,.481,0h0Zm-0.963,3a0.241,0.241,0,1,1-.241-0.249,0.246,0.246,0,0,1,.241.249h0Zm0,0.749a0.241,0.241,0,1,1-.241-0.25,0.245,0.245,0,0,1,.241.25h0Zm0,0.751a0.241,0.241,0,1,1-.241-0.25,0.244,0.244,0,0,1,.241.25h0Zm0,0.75a0.241,0.241,0,1,1-.241-0.251,0.247,0.247,0,0,1,.241.251h0Zm0,0.749a0.241,0.241,0,1,1-.241-0.248,0.244,0.244,0,0,1,.241.248h0Zm0.963,0.5a0.241,0.241,0,1,1-.24-0.25,0.245,0.245,0,0,1,.24.25h0Zm0.963,0a0.241,0.241,0,1,1-.241-0.25,0.246,0.246,0,0,1,.241.25h0Z" transform="translate(-316.047 -128.5)"/>
</svg>
