<svg xmlns="http://www.w3.org/2000/svg" width="40" height="40" viewBox="0 0 40 40">
  <defs>
    <style>
      .cls-1 {
        fill: #fff;
        fill-rule: evenodd;
      }
    </style>
  </defs>
  <path id="icon_cofeeshop" class="cls-1" d="M29.772,28.632a4.815,4.815,0,0,0,.018-9.556V18.3a0.741,0.741,0,0,0-.745-0.737H8.461a0.741,0.741,0,0,0-.745.737v9.713a10.9,10.9,0,0,0,5.639,9.515H6.746a0.737,0.737,0,1,0,0,1.474H30.6a0.737,0.737,0,1,0,0-1.474H24.151a10.913,10.913,0,0,0,5.621-8.9h0Zm0.018-8.062a3.341,3.341,0,0,1,0,6.565V20.571ZM18.753,37.454a9.5,9.5,0,0,1-9.546-9.438V22.124h7.519a0.737,0.737,0,1,0,0-1.474H9.206V19.041H28.3v8.976a9.5,9.5,0,0,1-9.546,9.438h0Zm0,0,1.793-16.8H19.454a0.737,0.737,0,1,0,0,1.474h1.092a0.737,0.737,0,1,0,0-1.474h0Zm0,0M20.7,5.429a0.737,0.737,0,1,0,0,1.475,2.279,2.279,0,1,1,0,4.557,3.779,3.779,0,0,0-3.8,3.753,0.746,0.746,0,0,0,1.491,0,2.294,2.294,0,0,1,2.3-2.278,3.753,3.753,0,1,0,0-7.506h0Zm0,0-2.8,2.6a2.279,2.279,0,1,1,0-4.557,0.737,0.737,0,1,0,0-1.475,3.753,3.753,0,1,0,0,7.506,0.737,0.737,0,1,0,0-1.474h0Zm0,0" transform="translate(0 -0.5)"/>
</svg>
