<svg xmlns="http://www.w3.org/2000/svg" width="40" height="40" viewBox="0 0 40 40">
  <defs>
    <style>
      .cls-1 {
        fill: #fff;
        fill-rule: evenodd;
      }
    </style>
  </defs>
  <path id="icon_restaurant" class="cls-1" d="M6.516,33.145H33.482a0.6,0.6,0,0,0,.589-0.61A14.454,14.454,0,0,0,22.326,18.164a2.78,2.78,0,0,0,.6-1.719,2.64,2.64,0,1,0-5.276,0,2.761,2.761,0,0,0,.543,1.638A14.429,14.429,0,0,0,5.929,32.534a0.6,0.6,0,0,0,.587.61h0Zm13.776-18.22a1.519,1.519,0,1,1-1.467,1.52,1.493,1.493,0,0,1,1.467-1.52h0ZM20,19.176a13.127,13.127,0,0,1,12.885,12.75H7.117A13.122,13.122,0,0,1,20,19.176h0Zm0,0-4.053,1.958a11.843,11.843,0,0,0-6.418,5.929,0.615,0.615,0,0,0,.26.815,0.572,0.572,0,0,0,.26.068,0.6,0.6,0,0,0,.529-0.333,10.653,10.653,0,0,1,5.776-5.341,0.614,0.614,0,0,0,.347-0.779,0.584,0.584,0,0,0-.754-0.359h0Zm0,0,19.3,13.22H3V35.57H4.756V38H5.929V35.57H34.071V38h1.171V35.57H37V34.353H35.242Zm0,0M18.434,10.632a1.221,1.221,0,0,1-.6.759,0.612,0.612,0,0,0-.293.8,0.588,0.588,0,0,0,.535.361,0.524,0.524,0,0,0,.234-0.056,2.408,2.408,0,0,0,1.252-1.532,3.723,3.723,0,0,0-.806-3.034,2.034,2.034,0,0,1-.469-1.689,2.032,2.032,0,0,1,1.167-1.066,0.607,0.607,0,0,0,.374-0.763,0.583,0.583,0,0,0-.739-0.39,3.211,3.211,0,0,0-1.915,1.833,3.16,3.16,0,0,0,.628,2.775,2.655,2.655,0,0,1,.628,2h0Zm0,0,3.733-.853a0.761,0.761,0,0,1-.343.446,0.61,0.61,0,0,0-.3.8,0.585,0.585,0,0,0,.537.357,0.6,0.6,0,0,0,.236-0.048,1.939,1.939,0,0,0,.994-1.219,2.856,2.856,0,0,0-.6-2.341,1.38,1.38,0,0,1-.318-1.07,1.281,1.281,0,0,1,.742-0.667,0.612,0.612,0,0,0,.372-0.765,0.583,0.583,0,0,0-.739-0.387A2.442,2.442,0,0,0,21.26,6.317a2.451,2.451,0,0,0,.477,2.161,1.785,1.785,0,0,1,.43,1.3h0Zm0,0" transform="translate(0 -1)"/>
</svg>
