<svg xmlns="http://www.w3.org/2000/svg" width="22" height="18" viewBox="0 0 22 18">
  <defs>
    <style>
      .cls-1 {
        fill: #fff;
        fill-rule: evenodd;
      }
    </style>
  </defs>
  <path id="icon-hotel-fill-Small.svg" class="cls-1" d="M1177.56,53.029h-3.08V52.211a0.265,0.265,0,0,0-.27-0.262h-6.49a0.265,0.265,0,0,0-.27.262v0.817h-3.33a0.265,0.265,0,0,0-.27.262V65.718a0.266,0.266,0,0,0,.27.263h13.44a0.266,0.266,0,0,0,.27-0.263V53.29a0.265,0.265,0,0,0-.27-0.262h0Zm-6.99,12.427h-2.06V62.667a2.268,2.268,0,0,1,2.06-2.235v5.024Zm2.61,0h-2.07V60.432a2.277,2.277,0,0,1,2.07,2.235v2.789Zm-6.16-10.4h-1.55a0.265,0.265,0,0,0-.27.262v2.289a0.265,0.265,0,0,0,.27.262h1.55a0.265,0.265,0,0,0,.27-0.262V55.319a0.265,0.265,0,0,0-.27-0.262h0Zm-0.27,2.288h-1.02V55.58h1.02v1.765Zm7.64-2.026v2.289a0.265,0.265,0,0,0,.27.262h1.56a0.265,0.265,0,0,0,.27-0.262V55.319a0.265,0.265,0,0,0-.27-0.262h-1.56a0.265,0.265,0,0,0-.27.262h0Zm0.54,0.261h1.02v1.765h-1.02V55.58Zm-1.78-.523h-1.55a0.265,0.265,0,0,0-.27.262v2.289a0.265,0.265,0,0,0,.27.262h1.55a0.265,0.265,0,0,0,.27-0.262V55.319a0.265,0.265,0,0,0-.27-0.262h0Zm-0.27,2.288h-1.01V55.58h1.01v1.765Zm-2.8-2.288h-1.55a0.265,0.265,0,0,0-.27.262v2.289a0.265,0.265,0,0,0,.27.262h1.55a0.265,0.265,0,0,0,.27-0.262V55.319a0.265,0.265,0,0,0-.27-0.262h0Zm-0.26,2.288h-1.02V55.58h1.02v1.765Zm3.56-4.152a0.27,0.27,0,1,1-.27-0.262,0.265,0.265,0,0,1,.27.262h0Zm-3.22,0a0.27,0.27,0,1,1-.27-0.262,0.265,0.265,0,0,1,.27.262h0Zm2.15,0a0.27,0.27,0,1,1-.27-0.262,0.265,0.265,0,0,1,.27.262h0Zm-1.08,0a0.265,0.265,0,0,1-.27.262,0.262,0.262,0,1,1,0-.523,0.265,0.265,0,0,1,.27.262h0Zm-2.15,0a0.27,0.27,0,1,1-.27-0.262,0.265,0.265,0,0,1,.27.262h0Zm5.58,9.581h1.56a0.265,0.265,0,0,0,.27-0.262V60.223a0.266,0.266,0,0,0-.27-0.262h-1.56a0.266,0.266,0,0,0-.27.262v2.289a0.265,0.265,0,0,0,.27.262h0Zm0.27-2.289h1.02v1.766h-1.02V60.485Zm-9.46,2.289h1.55a0.265,0.265,0,0,0,.27-0.262V60.223a0.266,0.266,0,0,0-.27-0.262h-1.55a0.266,0.266,0,0,0-.27.262v2.289a0.265,0.265,0,0,0,.27.262h0Zm0.26-2.289h1.02v1.766h-1.02V60.485Zm2.24,4.971h-3.58v-1.5h3.58v1.5Zm9.32,0h-3.58v-1.5h3.58v1.5Z" transform="translate(-1159.84 -49.953)"/>
</svg>
