<svg xmlns="http://www.w3.org/2000/svg" width="32" height="26" viewBox="0 0 32 26">
  <defs>
    <style>
      .cls-1 {
        fill-rule: evenodd;
      }
    </style>
  </defs>
  <path id="icon-timeline-flight.svg" class="cls-1" d="M714.392,356.489a6.037,6.037,0,0,0-1.793-.431h0c-0.12-.008-0.236-0.01-0.344-0.007l-4.665.167-4.367-7.811A2.778,2.778,0,0,0,700.8,347h-1a0.5,0.5,0,0,0-.4.2,0.482,0.482,0,0,0-.079.431l2.628,8.825-6.327.561-1.1-3.156a0.5,0.5,0,0,0-.471-0.328h-1.7a0.492,0.492,0,0,0-.376.168,0.486,0.486,0,0,0-.116.391L692.605,359l-0.734,4.915a0.484,0.484,0,0,0,.116.39,0.5,0.5,0,0,0,.376.17h1.7a0.5,0.5,0,0,0,.471-0.331l1.1-3.155,6.327,0.56-2.628,8.826a0.483,0.483,0,0,0,.079.431,0.5,0.5,0,0,0,.4.195h1a2.773,2.773,0,0,0,2.423-1.407l4.367-7.811,4.666,0.166c0.119,0,.245,0,0.378-0.007h0a6.257,6.257,0,0,0,1.785-.441c1.5-.605,2.4-1.539,2.4-2.5s-0.906-1.907-2.425-2.51h0ZM702.35,369.121a1.771,1.771,0,0,1-1.55.9h-0.331l2.5-8.41,0.428,0.015-0.689,2.317a0.488,0.488,0,0,0,.338.607,0.514,0.514,0,0,0,.14.019,0.5,0.5,0,0,0,.476-0.351l0.761-2.554,2.05,0.075Zm9.8-8.152-4.382-.159-0.028,0-5.205-.189-7.2-.638a0.49,0.49,0,0,0-.514.328l-1.11,3.187h-0.768l0.662-4.425a0.423,0.423,0,0,0,0-.142l-0.662-4.425h0.768l1.11,3.188a0.493,0.493,0,0,0,.514.328l7.318-.648a0.5,0.5,0,0,0,.366-0.213,0.486,0.486,0,0,0,.066-0.412l-2.611-8.77H700.8a1.773,1.773,0,0,1,1.55.9l4.124,7.376-0.71.027a0.488,0.488,0,0,0,.019.976H705.8l1.44-.056a0.657,0.657,0,0,0,.078,0l4.8-.172c0.112,0.933.17,1.607,0.17,1.965s-0.05,1.046-.146,1.97h0Zm1.618-.27a5.92,5.92,0,0,1-.61.174c0.088-.864.132-1.493,0.132-1.874s-0.052-1-.151-1.875a5.512,5.512,0,0,1,.608.17c0.091,0.8.139,1.383,0.139,1.705,0,0.338-.04.91-0.118,1.7h0Zm1.044-.483c0.046-.534.068-0.942,0.068-1.217s-0.026-.681-0.081-1.222a1.239,1.239,0,0,1,.013,2.439h0Zm0,0" transform="translate(-688.344 -346)"/>
</svg>
