<svg xmlns="http://www.w3.org/2000/svg" width="14.031" height="11.969" viewBox="0 0 14.031 11.969">
  <defs>
    <style>
      .cls-1 {
        fill: #fff;
        fill-rule: evenodd;
      }
    </style>
  </defs>
  <path id="icon-timeline-camera.svg" class="cls-1" d="M597.632,532.167h-1.994l-0.936-2.439H588.77l-0.936,2.439h-0.309v-1.219h-1.4v1.219h-0.281a1.149,1.149,0,0,0-1.123,1.172V540.5a1.157,1.157,0,0,0,1.132,1.18h11.775a1.159,1.159,0,0,0,1.133-1.18v-7.165a1.149,1.149,0,0,0-1.124-1.172h0Zm-11.045-.732h0.468v0.732h-0.468v-0.732Zm5.605,7.323h0a2.471,2.471,0,1,1,2.469-2.471,2.473,2.473,0,0,1-2.469,2.471" transform="translate(-584.719 -529.719)"/>
</svg>
