<svg xmlns="http://www.w3.org/2000/svg" width="22" height="18" viewBox="0 0 22 18">
  <defs>
    <style>
      .cls-1 {
        fill: #fff;
        fill-rule: evenodd;
      }
    </style>
  </defs>
  <path id="icon-car-fill-small.svg_copy" data-name="icon-car-fill-small.svg copy" class="cls-1" d="M1067.57,57.926h-2.71l-3.25-3.434c0-.006-0.01-0.012-0.01-0.019a1.961,1.961,0,0,0-1.42-.651h-0.29l-0.27-1.488a0.419,0.419,0,0,0-.41-0.335h-1.34a0.419,0.419,0,0,0-.41.335l-0.28,1.488h-1.45a2.616,2.616,0,0,0-2.35,1.443,0.011,0.011,0,0,0-.01.012l-1.54,2.648h-0.25A3.112,3.112,0,0,0,1048.44,61v2.392a0.405,0.405,0,0,0,.41.407h1.63a2.7,2.7,0,0,0,5.31,0h6.33a2.707,2.707,0,0,0,5.32,0h1.54a0.405,0.405,0,0,0,.41-0.407V59.708a1.806,1.806,0,0,0-1.82-1.783h0Zm-9.35-5.111h0.64l0.18,0.98h-1Zm-2.4,1.822h4.36a1.117,1.117,0,0,1,.83.417l2.71,2.871H1060V56.88a0.415,0.415,0,0,0-.42-0.408,0.406,0.406,0,0,0-.41.408v1.045h-3.35V54.637Zm-1.73,1.049a2.3,2.3,0,0,1,.9-0.9v3.138h-2.2Zm0.9,7.686v0.016a1.856,1.856,0,0,1-3.71,0V63.367a1.856,1.856,0,0,1,3.71,0v0.006h0Zm11.65,0v0.016a1.861,1.861,0,0,1-3.72,0V63.367a1.861,1.861,0,0,1,3.72,0v0.006h0Zm-7.06-7.323a0.414,0.414,0,0,0,.42-0.407V55.521a0.415,0.415,0,0,0-.42-0.409,0.407,0.407,0,0,0-.41.409v0.122a0.406,0.406,0,0,0,.41.407h0Zm-6.45,6.025a1.308,1.308,0,0,0-1.32,1.3v0.014a1.326,1.326,0,0,0,2.65,0V63.376a1.318,1.318,0,0,0-1.33-1.3h0Zm0.5,1.3a0.5,0.5,0,0,1-.5.477,0.485,0.485,0,0,1-.49-0.477V63.367a0.485,0.485,0,0,1,.49-0.478,0.5,0.5,0,0,1,.5.477v0.01Zm11.15-1.3a1.317,1.317,0,0,0-1.33,1.3v0.014a1.331,1.331,0,0,0,2.66,0V63.372a1.317,1.317,0,0,0-1.33-1.3h0Zm0.49,1.3a0.49,0.49,0,0,1-.98,0V63.367a0.49,0.49,0,0,1,.98,0v0.01Zm-4.06-1.9h-4.42a0.408,0.408,0,1,0,0,.815h4.42a0.408,0.408,0,1,0,0-.815h0Z" transform="translate(-1047.925 -50)"/>
</svg>
