<svg xmlns="http://www.w3.org/2000/svg" width="32" height="26" viewBox="0 0 32 26">
  <defs>
    <style>
      .cls-1 {
        fill-rule: evenodd;
      }
    </style>
  </defs>
  <path id="icon-timeline-hotel.svg" class="cls-1" d="M1123.82,349.881a0.418,0.418,0,0,1-.42.412,0.411,0.411,0,1,1,0-.822,0.417,0.417,0,0,1,.42.41h0Zm-5.07,0a0.42,0.42,0,1,1-.42-0.41,0.418,0.418,0,0,1,.42.41h0Zm3.38,0a0.418,0.418,0,0,1-.42.412,0.411,0.411,0,1,1,0-.822,0.417,0.417,0,0,1,.42.41h0Zm-1.69,0a0.42,0.42,0,1,1-.42-0.41,0.418,0.418,0,0,1,.42.41h0Zm-3.38,0a0.42,0.42,0,1,1-.42-0.41,0.418,0.418,0,0,1,.42.41h0Zm8.35,3.338v3.593a0.417,0.417,0,0,0,.42.411h2.44a0.419,0.419,0,0,0,.43-0.411v-3.593a0.419,0.419,0,0,0-.43-0.411h-2.44a0.417,0.417,0,0,0-.42.411h0Zm0.85,0.411h1.59V356.4h-1.59V353.63Zm-0.43,11.294h2.44a0.419,0.419,0,0,0,.43-0.411V360.92a0.42,0.42,0,0,0-.43-0.412h-2.44a0.418,0.418,0,0,0-.42.412v3.593a0.417,0.417,0,0,0,.42.411h0Zm0.43-3.594h1.59V364.1h-1.59V361.33Zm-2.8-8.522h-2.44a0.419,0.419,0,0,0-.43.411v3.593a0.419,0.419,0,0,0,.43.411h2.44a0.417,0.417,0,0,0,.42-0.411v-3.593a0.417,0.417,0,0,0-.42-0.411h0Zm-0.43,3.593h-1.59V353.63h1.59V356.4Zm7.36-6.776h-4.85v-1.284a0.416,0.416,0,0,0-.42-0.41h-10.2a0.418,0.418,0,0,0-.43.41v1.284h-5.22a0.419,0.419,0,0,0-.43.411v19.508a0.419,0.419,0,0,0,.43.411h21.12a0.416,0.416,0,0,0,.42-0.411V350.036a0.417,0.417,0,0,0-.42-0.411h0Zm-15.05-.872h9.36v2.258h-9.36v-2.258Zm-0.03,20.38h-5.62v-2.361h5.62v2.361Zm4.1,0h-3.25v-4.377a3.568,3.568,0,0,1,3.25-3.509v7.886Zm4.09,0h-3.25v-7.886a3.576,3.576,0,0,1,3.25,3.509v4.377Zm6.47,0h-5.63v-2.361h5.63v2.361Zm0-3.182h-5.63v-1.2a4.414,4.414,0,0,0-4.47-4.351h-0.08a4.423,4.423,0,0,0-4.48,4.351v1.2h-5.62v-6.777h20.28v6.777Zm0-7.6h-20.28v-7.9h4.8v0.975a0.419,0.419,0,0,0,.43.411h10.2a0.417,0.417,0,0,0,.42-0.411v-0.975h4.43v7.9Zm-11.33-5.544h-2.44a0.419,0.419,0,0,0-.43.411v3.593a0.419,0.419,0,0,0,.43.411h2.44a0.417,0.417,0,0,0,.42-0.411v-3.593a0.417,0.417,0,0,0-.42-0.411h0Zm-0.42,3.593h-1.6V353.63h1.6V356.4Zm-6.84,8.523h2.44a0.417,0.417,0,0,0,.42-0.411V360.92a0.418,0.418,0,0,0-.42-0.412h-2.44a0.411,0.411,0,0,0-.42.412v3.593a0.411,0.411,0,0,0,.42.411h0Zm0.42-3.594h1.6V364.1h-1.6V361.33Zm2.02-8.522h-2.44a0.411,0.411,0,0,0-.42.411v3.593a0.411,0.411,0,0,0,.42.411h2.44a0.417,0.417,0,0,0,.42-0.411v-3.593a0.417,0.417,0,0,0-.42-0.411h0Zm-0.42,3.593h-1.6V353.63h1.6V356.4Z" transform="translate(-1103.825 -345.953)"/>
</svg>
