<svg xmlns="http://www.w3.org/2000/svg" width="13.062" height="14.094" viewBox="0 0 13.062 14.094">
  <defs>
    <style>
      .cls-1 {
        fill: #fff;
        fill-rule: evenodd;
      }
    </style>
  </defs>
  <path id="icon-timeline-file.svg" class="cls-1" d="M640.843,541.3a0.228,0.228,0,0,0,.081-0.176V530.993a0.221,0.221,0,0,0-.221-0.222h-6.421a1.256,1.256,0,0,0-2.4,0h-0.712a0.223,0.223,0,0,0-.222.222v12.633a0.224,0.224,0,0,0,.222.223h7.049a0.227,0.227,0,0,0,.175-0.082Zm-7.763-10.978a0.815,0.815,0,0,1,.724.445h-1.447a0.813,0.813,0,0,1,.723-0.445h0Zm0.129,8.684h5.578a0.73,0.73,0,0,0,0-1.021h-5.578a0.733,0.733,0,0,0,0,1.021h0Zm0-1.986h5.578a0.729,0.729,0,0,0,0-1.02h-5.578a0.732,0.732,0,0,0,0,1.02h0Zm0-2.052h5.578a0.651,0.651,0,0,0,0-.954h-5.578a0.653,0.653,0,0,0,0,.954h0Zm10.573-4H642.49a0.222,0.222,0,0,0,0,.443h0.072L643,543h-2a1.507,1.507,0,0,0,0,.74,0.222,0.222,0,0,0,.22.221h2.563A0.219,0.219,0,0,0,644,543.74V531.2a0.219,0.219,0,0,0-.218-0.221h0Z" transform="translate(-630.938 -529.875)"/>
</svg>
