<svg xmlns="http://www.w3.org/2000/svg" width="22" height="18" viewBox="0 0 22 18">
  <defs>
    <style>
      .cls-1 {
        fill: #fff;
        fill-rule: evenodd;
      }
    </style>
  </defs>
  <path id="icon-flight-fill-Small.svg" class="cls-1" d="M1103.09,58.852a3.846,3.846,0,0,0-1.14-.269h0a1.959,1.959,0,0,0-.22-0.006l-2.99.105-2.79-4.894a1.775,1.775,0,0,0-1.55-.884h-0.63a0.324,0.324,0,0,0-.26.123,0.292,0.292,0,0,0-.05.27l1.68,5.531-4.05.351-0.7-1.978a0.309,0.309,0,0,0-.3-0.206h-1.08a0.338,0.338,0,0,0-.25.106,0.305,0.305,0,0,0-.07.243l0.47,3.079-0.47,3.079a0.31,0.31,0,0,0,.07.245,0.346,0.346,0,0,0,.25.107h1.08a0.31,0.31,0,0,0,.3-0.209l0.7-1.976,4.05,0.35-1.68,5.53a0.294,0.294,0,0,0,.05.271,0.317,0.317,0,0,0,.26.121h0.63a1.774,1.774,0,0,0,1.55-.88l2.79-4.9,2.99,0.1c0.07,0,.15,0,0.24,0h0a4.093,4.093,0,0,0,1.14-.277,2.005,2.005,0,0,0,1.53-1.567,2.019,2.019,0,0,0-1.55-1.573h0Zm-0.4,2.638a3.3,3.3,0,0,1-.39.109c0.06-.541.09-0.936,0.09-1.174s-0.04-.628-0.1-1.175a3.487,3.487,0,0,1,.39.106,10.552,10.552,0,0,1,.09,1.069c0,0.212-.03.569-0.08,1.065h0Zm0.67-.3c0.03-.335.04-0.59,0.04-0.763a6.608,6.608,0,0,0-.05-0.765,0.773,0.773,0,0,1,.01,1.528h0Z" transform="translate(-1085.675 -51.422)"/>
</svg>
