<svg xmlns="http://www.w3.org/2000/svg" width="40" height="40" viewBox="0 0 40 40">
  <defs>
    <style>
      .cls-1 {
        fill: #fff;
        fill-rule: evenodd;
      }
    </style>
  </defs>
  <path id="icon_building" class="cls-1" d="M16.118,5.063H11.781a0.708,0.708,0,0,0-.7.717v4.454a0.707,0.707,0,0,0,.7.717h4.337a0.707,0.707,0,0,0,.7-0.717V5.779a0.708,0.708,0,0,0-.7-0.717h0Zm-0.7,4.454H12.479V6.5H15.42v3.02Zm0,0,8.462-4.454H19.545a0.708,0.708,0,0,0-.7.717v4.454a0.707,0.707,0,0,0,.7.717h4.337a0.707,0.707,0,0,0,.7-0.717V5.779a0.708,0.708,0,0,0-.7-0.717h0Zm-0.7,4.454H20.243V6.5h2.941v3.02Zm0,0-7.066,3.448H11.781a0.708,0.708,0,0,0-.7.717v4.454a0.708,0.708,0,0,0,.7.717h4.337a0.707,0.707,0,0,0,.7-0.717V13.681a0.707,0.707,0,0,0-.7-0.717h0Zm-0.7,4.454H12.479V14.4H15.42v3.02Zm0,0,8.462-4.454H19.545a0.708,0.708,0,0,0-.7.717v4.454a0.708,0.708,0,0,0,.7.717h4.337a0.707,0.707,0,0,0,.7-0.717V13.681a0.707,0.707,0,0,0-.7-0.717h0Zm-0.7,4.454H20.243V14.4h2.941v3.02Zm0,0-7.066,3.448H11.781a0.708,0.708,0,0,0-.7.717v4.454a0.708,0.708,0,0,0,.7.717h4.337a0.708,0.708,0,0,0,.7-0.717V21.583a0.707,0.707,0,0,0-.7-0.717h0Zm-0.7,4.454H12.479V22.3H15.42v3.02Zm0,0,12.238-1.146V2.726a0.708,0.708,0,0,0-.7-0.717H8.7a0.707,0.707,0,0,0-.7.717V37.279A0.708,0.708,0,0,0,8.7,38H26.959a0.5,0.5,0,0,0,.086-0.008,0.965,0.965,0,0,0,.6-0.37l0-.005c0.448-.59,4.38-5.836,4.38-8.409a5.023,5.023,0,0,0-4.372-5.03h0ZM20.7,36.562H18.529V34.37a0.7,0.7,0,1,0-1.4,0v2.192H14.962v-6H20.7v6Zm1.4,0V29.844a0.708,0.708,0,0,0-.7-0.717H14.264a0.708,0.708,0,0,0-.7.717v6.718H9.4V3.443h16.86V24.215a4.815,4.815,0,0,0-1.682.639V21.583a0.707,0.707,0,0,0-.7-0.717H19.545a0.708,0.708,0,0,0-.7.717v4.454a0.708,0.708,0,0,0,.7.717h3.242a5.136,5.136,0,0,0-.617,2.45c0,1.984,2.337,5.556,3.612,7.358H22.1ZM23.184,22.3v3.02H20.243V22.3h2.941ZM27.1,35.985c-1.55-2.157-3.533-5.385-3.533-6.781a3.535,3.535,0,1,1,7.067,0c0,1.395-1.984,4.623-3.534,6.781h0Zm0,0,0-9.091a2.311,2.311,0,1,0,2.25,2.31,2.283,2.283,0,0,0-2.25-2.31h0Zm0,3.187a0.877,0.877,0,1,1,.854-0.877,0.867,0.867,0,0,1-.854.877h0Zm0,0-9.268,1.346a0.708,0.708,0,0,0-.7.717v0.072a0.7,0.7,0,1,0,1.4,0V32.143a0.708,0.708,0,0,0-.7-0.717h0Zm0,0" transform="translate(-0.016)"/>
</svg>
