<svg xmlns="http://www.w3.org/2000/svg" width="22" height="18" viewBox="0 0 22 18">
  <defs>
    <style>
      .cls-1 {
        fill: #fff;
        fill-rule: evenodd;
      }
    </style>
  </defs>
  <path id="icon-food-fill-Small.svg" class="cls-1" d="M1125.7,64.466h13.49a0.306,0.306,0,0,0,.3-0.3,7.2,7.2,0,0,0-5.88-7.149,1.408,1.408,0,0,0,.3-0.855,1.321,1.321,0,1,0-2.64,0,1.359,1.359,0,0,0,.27.815,7.2,7.2,0,0,0-6.14,7.189,0.306,0.306,0,0,0,.3.3h0Zm6.89-9.064a0.756,0.756,0,1,1-.73.756,0.747,0.747,0,0,1,.73-0.756h0Zm7.48,9.665h-16.13v0.605h0.88v1.209h0.58V65.672h14.09v1.209h0.58V65.672h0.88V65.067h-0.88Zm-8.41-11.8a0.586,0.586,0,0,1-.3.378,0.3,0.3,0,0,0-.14.4,0.276,0.276,0,0,0,.38.152,1.2,1.2,0,0,0,.63-0.762,1.86,1.86,0,0,0-.41-1.509,1.029,1.029,0,0,1-.23-0.84,1.009,1.009,0,0,1,.58-0.53,0.3,0.3,0,0,0,.19-0.38,0.294,0.294,0,0,0-.37-0.194,1.609,1.609,0,0,0-.96.912,1.558,1.558,0,0,0,.32,1.38,1.3,1.3,0,0,1,.31.995h0Zm1.87-.424a0.4,0.4,0,0,1-.17.222,0.3,0.3,0,0,0,.12.575,0.3,0.3,0,0,0,.12-0.024,0.96,0.96,0,0,0,.49-0.606,1.365,1.365,0,0,0-.3-1.165,0.713,0.713,0,0,1-.16-0.532,0.653,0.653,0,0,1,.37-0.332,0.3,0.3,0,0,0,.19-0.381,0.294,0.294,0,0,0-.37-0.193,1.095,1.095,0,0,0-.51,1.788,0.89,0.89,0,0,1,.22.647h0Zm-3.11,5.649a5.892,5.892,0,0,0-3.21,2.95,0.3,0.3,0,0,0,.13.405,0.256,0.256,0,0,0,.13.034,0.3,0.3,0,0,0,.26-0.166,5.3,5.3,0,0,1,2.89-2.657,0.3,0.3,0,0,0,.17-0.388,0.283,0.283,0,0,0-.37-0.179h0Z" transform="translate(-1121.44 -49.422)"/>
</svg>
