<svg xmlns="http://www.w3.org/2000/svg" width="40" height="40" viewBox="0 0 40 40">
  <defs>
    <style>
      .cls-1 {
        fill: #7c6a13;
        fill-rule: evenodd;
      }
    </style>
  </defs>
  <path id="icon_grpTransport" class="cls-1" d="M27.437,12.144A3.9,3.9,0,0,0,31.4,8.32a3.962,3.962,0,0,0-7.92,0,3.9,3.9,0,0,0,3.96,3.824h0Zm0-6.043a2.255,2.255,0,0,1,2.289,2.211,2.29,2.29,0,0,1-4.578,0A2.255,2.255,0,0,1,27.437,6.1h0Zm0,0,7.574,2.211a7.579,7.579,0,0,0-15.149,0,8.924,8.924,0,0,0,.707,2.932H20.36A14.146,14.146,0,0,0,5.99,25.122,14.152,14.152,0,0,0,20.36,39.008,14.146,14.146,0,0,0,34.73,25.13,13.535,13.535,0,0,0,31.678,16.6c1.687-2.979,3.333-6.361,3.333-8.285h0ZM27.437,2.618a5.815,5.815,0,0,1,5.9,5.7c0,2.211-5.285,11.093-5.9,12.039-1.157-1.784-5.9-10.263-5.9-12.039a5.81,5.81,0,0,1,5.9-5.7h0Zm5.591,23.318A11.841,11.841,0,0,1,31.445,31.1h-3.92a22.906,22.906,0,0,0,.731-5.158h4.771ZM25.782,31.1H21.2V25.937h5.39a21.3,21.3,0,0,1-.8,5.159h0Zm-18.1-5.158h4.771a22.855,22.855,0,0,0,.731,5.159H9.267a11.95,11.95,0,0,1-1.583-5.158h0Zm1.583-6.78h3.92a22.919,22.919,0,0,0-.731,5.159H7.685a11.95,11.95,0,0,1,1.583-5.158h0Zm14.466-1.613H21.2V12.99c0.04,0.015.088,0.024,0.128,0.039,0.707,1.505,1.574,3.088,2.41,4.515h0Zm-4.217-4.561v4.561H15.493c0.988-2.42,2.426-4.119,4.024-4.561h0Zm0,6.175v5.159h-5.39a21.31,21.31,0,0,1,.8-5.158h4.587Zm-5.382,6.78h5.39V31.1H14.938a20.917,20.917,0,0,1-.8-5.158h0Zm5.382,6.78v4.561c-1.607-.442-3.036-2.141-4.024-4.561h4.024ZM21.2,37.27V32.709H25.22c-0.988,2.42-2.418,4.119-4.024,4.561h0Zm0-12.955V19.157h3.116a0.868,0.868,0,0,0,.353-0.078c0.683,1.117,1.293,2.048,1.679,2.637a23.249,23.249,0,0,1,.241,2.6H21.2ZM15.838,13.665a13.2,13.2,0,0,0-2.145,3.871h-3.3a12.727,12.727,0,0,1,5.446-3.871h0ZM10.384,32.717h3.309a13.018,13.018,0,0,0,2.145,3.871,12.8,12.8,0,0,1-5.454-3.871h0Zm14.5,3.871a13.178,13.178,0,0,0,2.145-3.871h3.309a12.851,12.851,0,0,1-5.454,3.871h0Zm8.145-12.272H28.256c-0.024-.659-0.073-1.326-0.145-1.978,0,0,1.494-2.242,2.667-4.2a12.011,12.011,0,0,1,2.249,6.183h0Zm0,0" transform="translate(-0.5)"/>
</svg>
