<svg xmlns="http://www.w3.org/2000/svg" width="11" height="11" viewBox="0 0 11 11">
  <defs>
    <style>
      .cls-1 {
        fill: #f3d33e;
        fill-rule: evenodd;
      }
    </style>
  </defs>
  <path id="icon-timeline-fav.svg" class="cls-1" d="M787.993,477.1a0.261,0.261,0,0,0-.242-0.189h-3.736l-1.252-3.724A0.274,0.274,0,0,0,782.5,473a0.261,0.261,0,0,0-.242.188l-1.273,3.724h-3.736a0.235,0.235,0,0,0-.242.168,0.286,0.286,0,0,0,.08.314L780,479.779l-1.313,3.829a0.251,0.251,0,0,0,.1.293,0.225,0.225,0,0,0,.3.021l3.413-2.113,3.413,2.134a0.334,0.334,0,0,0,.141.021,0.213,0.213,0,0,0,.162-0.063,0.251,0.251,0,0,0,.081-0.293L785,479.779l2.908-2.385A0.249,0.249,0,0,0,787.993,477.1Z" transform="translate(-777 -473)"/>
</svg>
