<svg xmlns="http://www.w3.org/2000/svg" width="22" height="18" viewBox="0 0 22 18">
  <defs>
    <style>
      .cls-1 {
        fill: #fff;
        fill-rule: evenodd;
      }
    </style>
  </defs>
  <path id="icon-meeting-fill-small.svg" class="cls-1" d="M1017.11,63.242a2.962,2.962,0,0,0,1.25-2.43,2.827,2.827,0,1,0-5.65,0,2.962,2.962,0,0,0,1.25,2.43,1.986,1.986,0,0,0-1.4,1.917v3.49a0.286,0.286,0,0,0,.28.287h5.39a0.286,0.286,0,0,0,.28-0.287V65.16a1.986,1.986,0,0,0-1.4-1.917h0Zm-0.93.9-0.34-.4h0.67Zm-1.08-.4,0.67,0.791-0.63.486-0.3-1.277h0.26Zm2.05,0.126a1.015,1.015,0,0,1,.1.054l-0.1,1.05-0.57-.439Zm-3.88-3.057a2.272,2.272,0,1,1,2.27,2.354,2.31,2.31,0,0,1-2.27-2.354h0Zm2.17-.535a0.278,0.278,0,0,0-.52,0,0.31,0.31,0,0,0,.08.329,0.274,0.274,0,0,0,.33.023,0.3,0.3,0,0,0,.11-0.352c-0.01-.019,0,0.015,0,0h0Zm1.3,0.22a0.275,0.275,0,0,0,.26.178,0.285,0.285,0,0,0,.27-0.219,0.328,0.328,0,0,0-.1-0.3,0.285,0.285,0,0,0-.34,0,0.3,0.3,0,0,0-.09.344h0Zm7.17-2.8a0.273,0.273,0,0,0,.15.044,0.249,0.249,0,0,0,.13-0.035,0.294,0.294,0,0,0,.15-0.252V56.786h0.28a0.882,0.882,0,0,0,.86-0.9V52.879a0.882,0.882,0,0,0-.86-0.9h-2.88V51.865a0.881,0.881,0,0,0-.86-0.894h-5.1a0.883,0.883,0,0,0-.87.894v3.012a0.883,0.883,0,0,0,.87.895h0.28v0.671a0.283,0.283,0,0,0,.14.252,0.277,0.277,0,0,0,.14.036,0.292,0.292,0,0,0,.15-0.046l1.38-.913h0.79V55.89a0.875,0.875,0,0,0,.86.9h3.01Zm-4.7-1.81V52.879a0.315,0.315,0,0,1,.31-0.319h5.1a0.315,0.315,0,0,1,.31.319V55.89a0.316,0.316,0,0,1-.31.32h-0.56a0.287,0.287,0,0,0-.28.288v0.433l-1.02-.676a0.282,0.282,0,0,0-.15-0.045h-3.09a0.316,0.316,0,0,1-.31-0.32h0Zm1.12-1.716h3.48a0.289,0.289,0,0,0,0-.577h-3.48a0.289,0.289,0,0,0,0,.577h0Zm3.76,0.768a0.28,0.28,0,0,0-.28-0.287h-3.48a0.289,0.289,0,0,0,0,.577h3.48a0.283,0.283,0,0,0,.28-0.29h0Zm2.11,8.3a2.936,2.936,0,0,0,1.25-2.43,2.827,2.827,0,1,0-5.65,0,2.962,2.962,0,0,0,1.25,2.43,1.99,1.99,0,0,0-1.39,1.917v3.49a0.278,0.278,0,0,0,.27.287h5.39a0.28,0.28,0,0,0,.28-0.287V65.16a1.986,1.986,0,0,0-1.4-1.917h0Zm-0.58.5a1.148,1.148,0,0,1-1.98,0h1.98Zm-3.26-2.931a2.272,2.272,0,1,1,2.27,2.354,2.316,2.316,0,0,1-2.27-2.354h0Zm3.71,7.547v-1.6h0.97v1.6h-0.97Zm-1.34-7.862a0.265,0.265,0,0,0,.29.175,0.277,0.277,0,0,0,.23-0.215,0.3,0.3,0,0,0-.11-0.309,0.273,0.273,0,0,0-.35.034,0.284,0.284,0,0,0-.06.315c0,0.018-.01-0.018,0,0h0Zm-1.29-.167a0.35,0.35,0,0,0-.04-0.1,0.282,0.282,0,1,0-.1.411,0.293,0.293,0,0,0,.14-0.308h0Zm1.24,1.044a0.211,0.211,0,0,0-.31,0,0.409,0.409,0,0,1-.28.119,0.391,0.391,0,0,1-.28-0.119,0.211,0.211,0,0,0-.31,0,0.23,0.23,0,0,0,0,.326,0.8,0.8,0,0,0,.59.254,0.819,0.819,0,0,0,.59-0.254,0.23,0.23,0,0,0,0-.326h0Zm-7.61,4.593a0.267,0.267,0,0,0-.26-0.178,0.281,0.281,0,0,0-.26.212,0.313,0.313,0,0,0,.11.317,0.279,0.279,0,0,0,.41-0.351c0-.017.01,0.018,0,0h0Z" transform="translate(-1009.075 -50.953)"/>
</svg>
