<svg xmlns="http://www.w3.org/2000/svg" width="32" height="26" viewBox="0 0 32 26">
  <defs>
    <style>
      .cls-1 {
        fill-rule: evenodd;
      }
    </style>
  </defs>
  <path id="icon-timeline-car.svg" class="cls-1" d="M584.217,160.311h-4.142l-4.957-5.4-0.027-.028a2.924,2.924,0,0,0-2.165-1.026h-0.433l-0.423-2.336a0.636,0.636,0,0,0-.627-0.525H569.4a0.639,0.639,0,0,0-.628.525l-0.422,2.336h-2.218a4,4,0,0,0-3.6,2.269c0,0.006-.008.011-0.012,0.019l-2.357,4.161H559.8a4.819,4.819,0,0,0-4.8,4.826V168.9a0.638,0.638,0,0,0,.638.64h2.478a4.108,4.108,0,0,0,8.114,0H575.9a4.109,4.109,0,0,0,8.115,0h2.351A0.637,0.637,0,0,0,587,168.9v-5.786a2.794,2.794,0,0,0-2.782-2.8h0Zm-14.281-8.029h0.975l0.278,1.537h-1.532Zm-3.658,2.862h6.648a1.67,1.67,0,0,1,1.268.656l4.145,4.511h-5.684v-1.644a0.638,0.638,0,1,0-1.275,0v1.644h-5.1v-5.167Zm-2.648,1.648A3.507,3.507,0,0,1,565,155.381v4.93h-3.366ZM565,168.866v0.023a2.837,2.837,0,0,1-5.673,0c0-.009,0-0.018,0-0.032a2.837,2.837,0,1,1,5.674,0v0.009Zm17.788,0v0.023a2.836,2.836,0,0,1-5.672,0c0-.009,0-0.018,0-0.032a2.837,2.837,0,1,1,5.674,0,0.008,0.008,0,0,1,0,0v0Zm2.934-2.982h-0.446a0.64,0.64,0,0,0,0,1.28h0.446v1.09h-1.7a4.109,4.109,0,0,0-8.135,0h-9.652a4.111,4.111,0,0,0-8.137,0H556.27v-1.09h0.573a0.64,0.64,0,0,0,0-1.28H556.27v-0.747a3.54,3.54,0,0,1,3.526-3.546h24.421a1.514,1.514,0,0,1,1.49,1.281h-2.086a0.641,0.641,0,0,0,0,1.282h2.1v1.73Zm-13.708-8.521a0.639,0.639,0,0,0,.638-0.64v-0.192a0.638,0.638,0,1,0-1.275,0v0.192a0.639,0.639,0,0,0,.637.64h0Zm2.487,8.521h-6.758a0.64,0.64,0,0,0,0,1.28H574.5a0.64,0.64,0,0,0,0-1.28h0Zm-12.337.942a2.032,2.032,0,0,0-2.027,2.037v0.016a2.026,2.026,0,0,0,4.052.009,0.209,0.209,0,0,0,0-.025,2.033,2.033,0,0,0-2.026-2.037h0Zm0.752,2.045a0.753,0.753,0,0,1-1.5,0v-0.014a0.753,0.753,0,0,1,1.5,0v0.015h0Zm17.036-2.045a2.034,2.034,0,0,0-2.027,2.037v0.016a2.028,2.028,0,0,0,4.055.009v-0.025a2.034,2.034,0,0,0-2.028-2.037h0Zm0.751,2.045a0.752,0.752,0,0,1-1.5,0v-0.014a0.752,0.752,0,0,1,1.5,0v0.015h0Z" transform="translate(-555 -149)"/>
</svg>
