<svg xmlns="http://www.w3.org/2000/svg" width="18.375" height="16.938" viewBox="0 0 18.375 16.938">
  <defs>
    <style>
      .cls-1 {
        fill: #fff;
        fill-rule: evenodd;
      }
    </style>
  </defs>
  <path id="icon-timeline-filter.svg" class="cls-1" d="M244.627,9.357a0.557,0.557,0,0,0-.5-0.319H226.876a0.556,0.556,0,0,0-.429.91l6.63,8.041v7.415a0.557,0.557,0,0,0,.8.5l3.725-1.846a0.556,0.556,0,0,0,.309-0.5l0.007-5.569,6.631-8.042A0.556,0.556,0,0,0,244.627,9.357Zm-7.69,8.079a0.555,0.555,0,0,0-.127.353L236.8,23.213l-2.613,1.295V17.79a0.557,0.557,0,0,0-.127-0.354l-6.007-7.285h14.887Z" transform="translate(-226.313 -9.031)"/>
</svg>
