<svg xmlns="http://www.w3.org/2000/svg" width="40" height="40" viewBox="0 0 40 40">
  <defs>
    <style>
      .cls-1 {
        fill: #acacac;
        fill-rule: evenodd;
      }
    </style>
  </defs>
  <path id="icon_otherLocation" class="cls-1" d="M20.052,37.03H19.974a3.118,3.118,0,0,1-2.152-1.087c-5.226-6.167-10.8-13.353-10.8-20.623a13.161,13.161,0,0,1,12.99-13.3A13.162,13.162,0,0,1,33,15.319c0,7.276-5.574,14.46-10.8,20.622h0a3.137,3.137,0,0,1-2.152,1.089h0ZM20.013,3.372A11.8,11.8,0,0,0,8.393,15.319c0,6.818,5.41,13.773,10.48,19.756a1.776,1.776,0,0,0,1.1.6h0.079a1.8,1.8,0,0,0,1.1-.6c5.07-5.98,10.48-12.933,10.48-19.756A11.8,11.8,0,0,0,20.013,3.372h0Zm0,19.577a8.318,8.318,0,1,1,8.439-8.317,8.389,8.389,0,0,1-8.439,8.317h0Zm0-15.284a6.968,6.968,0,1,0,7.069,6.967,7.028,7.028,0,0,0-7.069-6.967h0Zm0,0" transform="translate(-0.016 0.469)"/>
</svg>
